/* XPM */
static char *c3c873a6e9144d6cd9e30e4bbef0b811[] = {
/* columns rows colors chars-per-pixel */
"64 64 255 2 ",
"   c #000004",
".  c #190E05",
"X  c #020717",
"o  c #081419",
"O  c #141414",
"+  c #181818",
"@  c #1C1C1C",
"#  c #231916",
"$  c #241D1A",
"%  c #1E201E",
"&  c #24201C",
"*  c #37241C",
"=  c #000024",
"-  c #001723",
";  c #000034",
":  c #00003C",
">  c #1F2323",
",  c #252423",
"<  c #2B2A29",
"1  c #2F2E2F",
"2  c #332928",
"3  c #2D3337",
"4  c #343633",
"5  c #3A3B36",
"6  c #343939",
"7  c #3C3D3A",
"8  c #462D24",
"9  c #4C312A",
"0  c #58362C",
"q  c #4C3C36",
"w  c #543A32",
"e  c #5C3C32",
"r  c #62392D",
"t  c #653E32",
"y  c #753E33",
"u  c #3E413C",
"i  c #42433E",
"p  c #48443E",
"a  c #5D433A",
"s  c #6C4234",
"d  c #65423A",
"f  c #6A463B",
"g  c #764639",
"h  c #754B3D",
"j  c #000548",
"k  c #001A47",
"l  c #001E53",
"z  c #00234B",
"x  c #002A4D",
"c  c #002B52",
"v  c #002856",
"b  c #013757",
"n  c #00365B",
"m  c #183C58",
"M  c #383A42",
"N  c #003E62",
"B  c #1A415C",
"V  c #374048",
"C  c #374C5C",
"Z  c #02486B",
"A  c #174B6A",
"S  c #034B72",
"D  c #004C73",
"F  c #1A4D71",
"G  c #05547B",
"H  c #195778",
"J  c #2C4C67",
"K  c #244B69",
"L  c #2C4E69",
"P  c #364E63",
"I  c #2E516C",
"U  c #20586F",
"Y  c #31536E",
"T  c #3B556A",
"R  c #3B566A",
"E  c #254E74",
"W  c #255473",
"Q  c #2D5572",
"!  c #295978",
"~  c #2C5B7A",
"^  c #325572",
"/  c #345A75",
"(  c #3A5C76",
")  c #365D79",
"_  c #385E7A",
"`  c #3D6074",
"'  c #35607D",
"]  c #39617C",
"[  c #444641",
"{  c #494742",
"}  c #464943",
"|  c #4A4C46",
" . c #4C4E49",
".. c #5D4745",
"X. c #4E5047",
"o. c #4E514A",
"O. c #575649",
"+. c #52544D",
"@. c #57594E",
"#. c #545750",
"$. c #565952",
"%. c #5A5C53",
"&. c #5B5C56",
"*. c #694A44",
"=. c #754C44",
"-. c #7B4D43",
";. c #6C5147",
":. c #7C5244",
">. c #76554A",
",. c #655B55",
"<. c #7C5B52",
"1. c #566055",
"2. c #5E6056",
"3. c #5E625A",
"4. c #626255",
"5. c #6C6A55",
"6. c #63655B",
"7. c #66685D",
"8. c #696858",
"9. c #6A6A5D",
"0. c #74735C",
"q. c #43576B",
"w. c #5F5F68",
"e. c #435D72",
"r. c #465F76",
"t. c #6E5D64",
"y. c #55666D",
"u. c #43637B",
"i. c #4B6579",
"p. c #586877",
"a. c #656862",
"s. c #6C6D62",
"d. c #756A6B",
"f. c #6D7064",
"g. c #6E7169",
"h. c #727365",
"j. c #777867",
"k. c #73756A",
"l. c #75796D",
"z. c #7A7B6B",
"x. c #666C76",
"c. c #677679",
"v. c #767C76",
"b. c #7A7D74",
"n. c #824D3D",
"m. c #814D44",
"M. c #895548",
"N. c #855A4A",
"B. c #8A5C4C",
"V. c #935C49",
"C. c #895755",
"Z. c #8C5C51",
"A. c #8C604D",
"S. c #93624D",
"D. c #98664F",
"F. c #876257",
"G. c #946453",
"H. c #9A6552",
"J. c #9A6A54",
"K. c #956758",
"L. c #9B6D5B",
"P. c #A46C59",
"I. c #A8745D",
"U. c #B4705A",
"Y. c #8B6A67",
"T. c #996E61",
"R. c #89756C",
"E. c #9A7668",
"W. c #847773",
"Q. c #977B76",
"!. c #A8766A",
"~. c #A77868",
"^. c #B57C65",
"/. c #7D8379",
"(. c #8A8876",
"). c #848679",
"_. c #9C8278",
"`. c #A4847A",
"'. c #B48374",
"]. c #C3917E",
"[. c #145E83",
"{. c #2D5E80",
"}. c #186286",
"|. c #2C688B",
" X c #366483",
".X c #3B6684",
"XX c #3D6986",
"oX c #356789",
"OX c #346A8B",
"+X c #3C6C8C",
"@X c #356E90",
"#X c #3D6F90",
"$X c #3E7192",
"%X c #436B85",
"&X c #476B85",
"*X c #406E8D",
"=X c #516F83",
"-X c #42718E",
";X c #4C7189",
":X c #567487",
">X c #406F90",
",X c #427394",
"<X c #457798",
"1X c #447999",
"2X c #5B7D95",
"3X c #657B87",
"4X c #757B83",
"5X c #657E92",
"6X c #52829D",
"7X c #6D8289",
"8X c #798488",
"9X c #678499",
"0X c #798895",
"qX c #6C8CA3",
"wX c #7493A6",
"eX c #7EA3B8",
"rX c #858B82",
"tX c #8B8986",
"yX c #978988",
"uX c #8B9285",
"iX c #8C9398",
"pX c #8C949B",
"aX c #B08E89",
"sX c #BA948B",
"dX c #8798A6",
"fX c #839EB2",
"gX c #93A2AC",
"hX c #98A2A8",
"jX c #89A4B6",
"kX c #96A7B4",
"lX c #98ABB7",
"zX c #A9B0B5",
"xX c #A8B3BA",
"cX c #C69A89",
"vX c #CDA89E",
"bX c #C8A6A0",
"nX c #9FB7C6",
"mX c #A4BCC8",
"MX c #B5BDC3",
"NX c #B9C2C7",
"BX c #B8C8D3",
"VX c #C5C9CC",
"CX c #C9CDD1",
"ZX c #CAD3D9",
"AX c #D5D7D9",
"SX c #D8DDE3",
"DX c #DCE3E9",
"FX c #E7EAEB",
"GX c #E5E9EC",
"HX c #E7ECF1",
"JX c #EAF2F7",
"KX c #F2F4F5",
"LX c #F1F6FA",
"PX c #F3FAFB",
"IX c #FAFCFD",
/* pixels */
"T c NXIXBXc pXKXgXb e.k iXKXgXN e.c CXIXNXk pXPXdX= MXFXq.AXKXfXH .X] ( e.b zXPXmX@X;XqX( r.FXSX%Xb MXPXgXx ZXJXwXb zXIXgXl VXPX",
"P z VXHX=X; 4XKXxXc e.; tXKXgXZ r.x AXDXQ : 4XKXhX= MXHXSXHXfXD ] ] ( ( ^ K SXDX[.E K J n pXLXdXN m q.KXNX` KXNXc z pXIXdXU KXSX",
"T k VXGXu.j 4XKXnXc r.z iXKXgXZ r.x AXSXA z 8XKXhX= MXKXJXSXU ! .X) ] ( L q.FXVXZ &X] u.c hXKX0XZ q.b FXCX7XPXxXZ b pXIXdX:XKXKX",
"K k VXGXu.j 4XKXlXb P   4XKXdX: T x CXSXA z 8XKXhXX NXDX7XHXAXS ! ] ] ] ^ B DXSXv N Z H n 0XKXhX: x C KXNXi.PXxXj : zXIXwX' LXAX",
"3Xj CXHX&Xk 4XIXxXl 4X0XzXKXxXiX:Xc AXDXF l 8XLXgXX NXHXZ 0XLXVXW ' ] ] u.n xXIXMXp.8XgX&XA DXHX8Xp.VXPXeXZ HXGXp.hXPXIXjXD SXJX",
"nXj BXDX=Xn 5XHXlXj MXJXHXHXGXHXlXj ZXSX! N 0XJXgX: MXDX&Xj kXJXmXH %X] ] ) ] BXLXJXLXDX;XD 0XDXPXLXPXmX|.G kXPXPXJXZXJXlX[.qXHX",
"&X^ :X2X_ / _ 5X;X~ ;X9X9X2X9X9X;X~ :X2X/ / &XqX&XE ;X6X) Q A 5X9Xu..X%X] ' ~ S 9XjXfX6X X.XH oXfXjXqX}.-X+XH wXmXqX|.eX6X$X}.6X",
"E ( E F ) _ ~ S E  XE S S Z S S W  XW F ~ ) ( S E ) ! F P M 3     6 C T ] ' ' .XD S D {. X' .X{.D G [.@X-X XoXG G }.@X[.,X,X#X|.",
"/ ^ ^ ( ) / / ( _ ) ) / / / ( ( / _  X_ / / ( ] ^ ( T M & # # , , . . & 3 P ' ] .X.X.X.X.X)  X.X.X%X%XoX>X.XoX.X#X+XoX>X<X>X+X#X",
"^ ( ^ Q / / ) Q / _ / Y ^ ^ ^ E Q ( _ ^ / _ ] ( ^ P 2 # + @ + O O + + @ @ , C ] ' ' ' .XoX_ {..X X X X.X>X.XoX+X@XOX+X#X<X<X@X+X",
"( / Q Y _ _ ) Q / _ / Q Y ^ / ^ ^ _ ' / Q ) _ ' P 1 $ % $ O O O O O + + @ & , ^ .X'  X.XoX X X X.X.X.X*X>X*X*X.X+X#X+X#X,X<X,X#X",
"_ ( / / _ _ ( _ _ _  X/  X X(  X_ ] ] ]  X_  X( M * , @ O O + + + + O O O % # 6 ] oX.XXXXXXXXXXX.X+X*X*X*X>X-X*X#X,X<X>X<X1X1X<X",
"_ ) _ ( _ _ _ _ ] ] ] ] ( _ .X_ .X_ ' ] .X] u.P 2 + X o # # + O + X + & + o @ $ T *XXX+X+X%X+X*X>X*X*X*X-X-X,X-X<X<X<X<X<X1X1X<X",
"( ) ) ) ( _ ] ` _ ] ] ]  X( _ _ ] ] ] ] _ _ ( M . 9 <.:.:.:.h t d 0 f :.h 9 + O V u.XX%X%X+X%X#X*X*X*X*X-X>X-X<X-X;X<X<X<X<X<X<X",
"( ) _ _ _ _ _ _ ] ] _ _ _ ( .X_ ] ] ] ] _ ] q.> e ^.'.I.P.J.D.S.S.S.S.S.A.A.p o < q.XX.XXX+X%X%X%X*X>X*X>X,X;X-X<X<X<X<X<X<X<X1X",
") ) ( / _ ( ] ] _ _ _ ( .X.X_ _ ] ] ] ] ] ] e.o R.sX^.I.J.D.D.J.J.J.D.S.S.L.h o < T XX.X.X%X+X+X*X*X>X>X>X>X>X<X>X-X<X<X<X<X<X1X",
") ( ) ) ( ) _ ] ' ] ] ) ] ] ] ] ] ] ' ' ] ] u.- Q.cX!.I.I.H.J.J.L.L.J.J.J.L.<.O 1 e..X.X*X.X.X+X*X*X+X>X>X>X,X,X,X,X<X<X<X<X<X<X",
") ) ) ( ) ) ( _ ) ` ) ] ] ' ) ` ] ] ] ] ] ] u.X `.vXP.L.T.L.J.L.L.K.F.;.>.E.Y.* < ] .X*X.X%X*X%X+X*X*X>X>X>X>X,X,X<X,X<X<X<X<X<X",
") ) ( ) ) ) _ _ ) ] ] ] ] ] ] ] ] ] ] ] _  X] X yXbXd ....N.G.K.L.;.a ,.<._._.2 < p..X.XXX*X*X*X*X+X*X>X-X>X-X,X,X,X<X<X<X1X1X1X",
"( ) ) ) ) ( _ _ ] ] ) ) ) ] ] ] ] ] ] ] .X Xp.2 yXbX=.=.*.h S.K.G.:.;.;.>.`.`.t.N.t.*XXX.X%X.X*X*X*X>X*X-X-X-X,X,X,X<X,X<X<X1X1X",
") ) ( ) _ _ _ _ ) ' ) ) ) ] ] ]  X( (  X_ _ p.=.sXsXy t a =.M.H.A.h d f -.B.E.R.M.,..X%X%X+XXX*X*X*X>X*X>X>X-X,X,X,X,X<X<X<X<X1X",
") ( ) ) ( ) ) ` ) ) ] ) ) ) ] ) (  X(  X_  Xu.C.'.].^.C.m.m.V.H.S.M.V.V.I.L.E.Q.y t.oX.X+X.X+X*X*X.X>X>X>X>X,X,X,X,X<X,X<X<X1X1X",
"( ) ) ( ) ( ) ) ) ` ) ) ) ] ) ]  X(  X(  X{. Xt.cXcX^.U.M.V.P.U.H.M.M.P.^.I.!.Q.m.p.OXXX+X*X.X*X*X.X>X>X>X>X,X,X,X,X<X,X<X1X1X1X",
"/ ( ) ( ) ) ) ) ) ) ' ) ) ) ] ] (  Xe. X(  X{.d.vXcX!.K.m.H.P.!.L.N.g M.~.~.'.Q.Y.=X X*XXXXX*X+X*X*X>X>X>X>X>X>X,X,X<X<X<X<X1X1X",
") ( ) ) _ _ _ ) ) )  X/ ) ) ] ) (  X(  X_ u.~ 3XsXaXV.m.=.=.y f t g =.f M.T.aXyXi.+X.XXX+XXXXX*X#X%X#X*X>X>X>X,X,X,X,X<X$X<X$X1X",
") ( / ( / _ /  X) ) ) ) ) ) ) ]  X( ( ( ' _ ] H d.T.y r t =.t r g =.d 9 t Z.Q.tX{..X%X.X.X+X.X*XXX#X*X-X>X>X$X>X>X>X<X1X<X<X1X1X",
"/ ( ) ) _ / / _ ) ) ) ) ) ) ) ) /  X X( ' ' ' ~ p.T.n.t e *.C.Y.Y.=.w 0 :.Z.Q.yX X.X.X.X+X.X+X+X*X#X+X*X,X>X>X,X,X,X<X$X1X1X1X1X",
"/ / / / / _ / ) ( ) ) ) ) ) ) ) ( ( (  X' _ ' {.u.R.V.N.C.C.C.C.C.M.=.-.Z.C.yXtX X.X*X.X.X+XXX#XXX+X#X#X-X$X,X,X$X,X$X<X$X$X1X1X",
"( ^ / / / / _ _ ) _ ) ) ) ) ) ) ( {._ _ ) ) _ _ ~ x.K.K.G.Z.-.y g N.B.N.Z.F.yXtX_ .X.X%X+XXX.X+X#X+X#X*X#X$X$X>X$X$X$X1X$X$X1X1X",
"/ ( / ( ( ) / / ) / ) ) ) ) ) ) ) / _ ) _ {._ ) ) u.Y.T.T.B.C.-.m.Z.B.B.Y.Y.yXW.u.oX%XoX.X.X+X+X+X*X+X*X$X$X>X$X$X$X1X1X1X1X1X1X",
"/ ( ^ ^ / / / ( ( ) ) ( _ _ _ ) ) ) ( ) _ _ )  X_ ~ i.Y.T.F.Z.M.M.N.N.N.;.;.Y.F.w.oX.X.XXXXX+X+X+X*X#X*X$X$X$X$X$X1X1X$X1X1X1X1X",
"^ / / ( / ( / / / / / ) / _ / _ ) ( _ _ _ _ ) _ _ ) ~ W.C.>.-.-.h -.f 0 8 0 f *.,.i.oX.XoX+X.X+X+X+X+X*X$X$X$X$X$X$X$X1X$X$X1X1X",
"^ ^ ( ^ / / / / / ) / ( ) ) ) ) ~ ) ) ) ) ) ) ) ) ] U 8X`.a 9 9 8 8 * * 9 t t 0 0 *.w.i.&X.X+X+X+X+X+X+X#X#X#X$X$X*X$X1X$X$X6X$X",
"/ ^ ^ ( ^ ^ / / / / / / / / ) ) ) ) ) ) ) ) ` ) ( u.H p.aX~.d 9 8 * 8 e t t r r r w X.O.w.c.XXoX+X+X+X+X+X#X#X*X$X>X$X1X$X1X1X1X",
"^ ^ ^ ^ ^ / / / / / / ) ~ / ) ) ) ) ) ) ) ) ` ) ~ ) ` y.`.'.G.h e r s s s r r r p [ o.o.X.7.c.i.OX$X+X+X#X#X+X$X$X>X,X$X1X$X$X1X",
"^ ^ ^ ^ ^ ^ / / / / / / ) / / ) / / ) ~ ) ) ! ~ u.c./.0.E.E.J.h t t g s d w a i i | { X.o.@.2.g./.u.OX+X#X#X#X-X$X$X,X$X$X1X$X1X",
"^ ^ ^ ^ ^ / ^ ^ ^ / / / ) / / / ) / / ) ~ ~ p.c.h.0.5.0.Q.L.A.s s g f e p u i } X.i | } X.@.@.%.7./.c.@X@X+X@X-X$X$X1X$X$X$X1X1X",
"^ ^ ^ ^ ^ ^ ^ ( / / ^ / / / / / ^ ) ) Q r.g.j.5.4.5.4.z.(.T.A.h f a p [ i p } | } i i | X.@.2.2.1.3./.7X*X@X-X-X$X$X$X$X$X1X1X$X",
"^ ^ ^ ^ ^ / ^ ^ ^ / / / ) ^ ) / ` ~ / y.0.0.O.4.5.5.0.(.j.s.,.+.X.} } [ p } | | i } i X.| @.1.%.1.$.f././.OX$X@X$X$X$X$X$X1X$X1X",
"^ ^ ^ ^ ^ ^ / Q / / ^ / ^ ) ^ ) ~ / y.4.0.X.4.4.4.8.j.0.h.7.6.%.o.o.| | o.X.| } p u | | o.$.o.$.1.2.1.k.8X7X|.-X#X$X$X$X$X$X$X$X",
"Q Y ^ ^ ^ ^ ^ ^ ^ ) ^ Q / / / ^ / f.2.4.4.X.4.O.,.8.j.g.0.8.6.&.@. .} +.o.| [ } } [ | i o.o.o.+.#.2.3.3./.8X;X@X#X#X$X$X$X$X$X1X",
"^ ^ ^ Y ^ ^ ^ ^ ^ ^ ^ ) Q / ) U c.f.X.8.p X.2.4.O.8.j.h.s.6.,.4.6.p o.o.|  . .| i [ }  . .| +.#.o.o.$.2.7.uX7X@X#X#X#X$X$X$X$X$X",
"Y Y ^ ^ ^ ^ ^ ^ ^ Q / ^ / ` U i./.O.O.8.u @.5.4.+.9.j.f.s.7.7.h.o.[ +.| o.o.o.} u u } | o.$.|  .#.#.#.1.7./.8X;XOX#X$X$X$X$X$X$X",
"Y Q Y Q ^ ^ ^ ^ ^ ^ Q / ^ ^ W /.0.X.9.X.p 2.5.4.+.0.j.a.9.6.d.+.} 6.+.| o.o.o.q i 5 | } +.} | $.$.$.1.1.6././.c.+X$X#X$X$X$X$X$X",
"Y Y Y Y ^ ^ Y ^ ^ ^ ^ ^ ^ Q u.uX8.2.4.u %.4.5.+.%.j.j.9.9.h.@.i 6.9.+.o.#.+. .[ 5 i X.[ u #.%.$.$.$.$.2.a.k./.k.;X$X#X#X$X$X$X1X",
"Y Y Y ^ Y Y ^ Y Y ^ ^ / / H 4X(.4.2.@.} 8.5.4.+.5.h.9.8.j.a.7 &.s.2.%.,.o.+.{ [ 5 +.X.u +.#.+.#.o.+.+.%.3.f.8Xz.y.>X@X$X$X$X$X$X",
"Y Y Y Y Y Y ^ Y ^ Y ^ ^ Q ^ rX).2.#.u $.9.8.@.1.h.h.s.h.k.{ %.a.9.%.8.7.$.,.{ { u o.| i } o.$.#.+.o.o.+.3.g./.b.6.&X+X$X$X$X$X$X",
"Y Y Y Y Y Y Q ^ ^ ^ ^ ^ W i.uXh.&.| [ 4.9.4.+.0.j.d.9.z.&.i 8.0.f.2.s.%.9.9.[ | 4 5 i i o.1.$.+.+.$.o.#.3.s.b././.:XOX#X$X$X$X$X",
"Y Y I Y Q Y Y ^ Q Q ^ / F c.tX9.+. .O.s.h.@.&.h.0.8.j.g.5 O.9.h.6.6.9.O.k.,.| | 1 [ [ o.1.o.#.$.o.o.o.#.1.w.l.b.rX4XOX$X#X#X#X$X",
"I I I Y I Y Y Y Q Y Y ^ F 4X(.7.X.o.&.9.9.@.8.h.6.9.z.o.5 %.h.g.,.9.#.6.z.o.o.[ 6 [  .1.o. .#.o. .o. .o.#.3.g.v.rXrX+X$X#X#X$X#X",
"Y Y I I Y Y Y Q Y Y ^ ^ W 4X).7.X.$.6.2.&.%.j.0.8.z.4.u | 6.h.s.%.9.#.6.s.[ @.7 1 u +.+.#.o.o.o. . .o.o.#.3.a.v.rX8X=X+X#X#X#X+X",
"L L I L L I Y Y Y Y ^ I T rXz.6.| 6.%.6.4.9.z.9.g.g.| 7 o.9.k.,.9.a.O.g.,. .,.4 , 7 o.3.1.o.o.o. . . .#.#.1.6.v.tXv.=XOX+X+X#X$X",
"L Y Y L Y L L Y I Y ^ K p.rXg.6.X.2.%.6.4.j.h.f.h.@.7 7 $.f.k.7.s.$.%.h.$.o.&.< > { 6.&.#.o.o.o. . . .o.o.$.3.l.rXa.&X+X+X#X#X#X",
"L I L Y L I L I I I ^ F c.).f.&.{ @.6.7.h.j.8.g.,.} u } 6.j.j.a.6.o.7.9.+.@.+., O #.6.4.#.#.#.o. . . . .#.%.3.g.).3.&X@X+XOX#X+X",
"L Y L L L L Y I I Q Y Q 8Xz.7.+.i $.s.j.z.h.a.8.+.[ [ X.6.j.f.8.%.$.9.7. .&.o., O #.6.&.#.o.o.o.C o.o. .#.1.3.k.8Xx.+X+X+X@X#X+X",
"L L L L L I I I I Y K e.tX0.&.X.5 4.l.z.j.9.6.O. .[ u +.8.z.s.s.%.1.f.%.o.#. .> @ %.6.#.#.o.#.o.o.o.o. .o.#.3.g.8Xp.oX@X+X+X+X@X",
"L L L L I L I I I I A p.(.6.o.{ u 3./.j.9.2.$.o.[ i [ %.f.k.s.f.4.%.s.#.+.#.[ @ > %.6.3.%.+. .o. .o. .o.#.#.3.g./.XX+XoX@X+XoX@X",
"L J L L L L L I L I A c.).6.o.p < 9./.5.6.1.| } | [  .6.h.g.8.a.2.8.7.+.o.o.u @ & o.%.$.#. .|  .| o. .o.#.&.3.k.7XOXOXXX+X+X@X+X",
"J L L J L L I L L I K 8XW.6.o.7 , h./.7.4.| u u | { X.6.h.8.a.6.@.9.%.o. .[ u @ @ | ,.&.#. . . . . . . .+.%.6.v.7XoXoX+XoX+X+X#X",
"J J J J J L L L Y K ` ).h.$. .5 , 7.f.9.%.5 5 7 } | +.9.h.6.a.&.6.6.} o.[ } u @ @ &.3.O.#. . . . .| +.o.o.1.6.k.3XoX+X@X@X@X+X+X",
"J J J J J L L L L A c.).7.@.| 5 % X.9.9.o.6 5 [  .&.9.h.s.6.6.6.l.#.{ } [  .u @ , | o.%.o.} | } }  . .o.o.%.g.g.:XoX#X+X#X@X+X#X",
"J J J J J J L L I A 4X).1.o.} 5 , p O.+.} 4 u o.,.s.7.h.&.&.6.s.a.|  .{ }  .5 % + | 6.$.} | | |  . .o.o.o.%.g./.:XoX+X@X+X#X#X@X",
"J J J L J L L J I A Q.E.>.O.u 3 % u p | i 1 u @.6.2.9.s.O.4.a.s.%.{ [  .X.| u , O +.7.+.#.o.| +.o.#.#. .| $.k./.;X@X#X@X@X#X$X$X",
"J J J J L J L I A y.'.U.J.N.*.a < 4 5 p 7 4 p @.1.2.f.&.&.6.s.6.X.| [ X.o.} 6 < O +.4.@.$.$.#.$.#.o. . . .o.k.8X+X@X#X#X$X#X#X#X"
};
